<mxfile host="app.diagrams.net" modified="2023-06-14T02:33:15.472Z" agent="Mozilla/5.0 (X11; Linux x86_64; rv:109.0) Gecko/20100101 Firefox/114.0" etag="VebObFTfGNy7-pZxuZyC" version="21.3.8" type="github">
  <diagram id="C5RBs43oDa-KdzZeNtuy" name="Page-1">
    <mxGraphModel dx="989" dy="523" grid="1" gridSize="10" guides="1" tooltips="1" connect="1" arrows="1" fold="1" page="1" pageScale="1" pageWidth="827" pageHeight="1169" math="0" shadow="0">
      <root>
        <mxCell id="WIyWlLk6GJQsqaUBKTNV-0" />
        <mxCell id="WIyWlLk6GJQsqaUBKTNV-1" parent="WIyWlLk6GJQsqaUBKTNV-0" />
        <mxCell id="Xw-442T-ghPfAEUu0Zwx-5" value="" style="edgeStyle=orthogonalEdgeStyle;rounded=0;orthogonalLoop=1;jettySize=auto;html=1;" edge="1" parent="WIyWlLk6GJQsqaUBKTNV-1" source="Xw-442T-ghPfAEUu0Zwx-0" target="Xw-442T-ghPfAEUu0Zwx-4">
          <mxGeometry relative="1" as="geometry" />
        </mxCell>
        <mxCell id="Xw-442T-ghPfAEUu0Zwx-0" value="Начало" style="rounded=1;whiteSpace=wrap;html=1;" vertex="1" parent="WIyWlLk6GJQsqaUBKTNV-1">
          <mxGeometry x="230" y="100" width="80" height="40" as="geometry" />
        </mxCell>
        <mxCell id="Xw-442T-ghPfAEUu0Zwx-3" value="int speed1=255;&lt;br&gt;int speed2=0;&lt;br&gt;bool flagreverse = 0;" style="text;html=1;strokeColor=none;fillColor=none;align=center;verticalAlign=middle;whiteSpace=wrap;rounded=0;" vertex="1" parent="WIyWlLk6GJQsqaUBKTNV-1">
          <mxGeometry x="200" y="30" width="140" height="60" as="geometry" />
        </mxCell>
        <mxCell id="Xw-442T-ghPfAEUu0Zwx-7" value="" style="edgeStyle=orthogonalEdgeStyle;rounded=0;orthogonalLoop=1;jettySize=auto;html=1;" edge="1" parent="WIyWlLk6GJQsqaUBKTNV-1" source="Xw-442T-ghPfAEUu0Zwx-4" target="Xw-442T-ghPfAEUu0Zwx-6">
          <mxGeometry relative="1" as="geometry" />
        </mxCell>
        <mxCell id="Xw-442T-ghPfAEUu0Zwx-4" value="Кнопка 1 нажата и flagreverse равен 0" style="rhombus;whiteSpace=wrap;html=1;rounded=1;" vertex="1" parent="WIyWlLk6GJQsqaUBKTNV-1">
          <mxGeometry x="197.5" y="160" width="145" height="80" as="geometry" />
        </mxCell>
        <mxCell id="Xw-442T-ghPfAEUu0Zwx-9" value="" style="edgeStyle=orthogonalEdgeStyle;rounded=0;orthogonalLoop=1;jettySize=auto;html=1;" edge="1" parent="WIyWlLk6GJQsqaUBKTNV-1" source="Xw-442T-ghPfAEUu0Zwx-6" target="Xw-442T-ghPfAEUu0Zwx-8">
          <mxGeometry relative="1" as="geometry" />
        </mxCell>
        <mxCell id="Xw-442T-ghPfAEUu0Zwx-6" value="вращаем двигатель по часавой стрелке" style="shape=parallelogram;perimeter=parallelogramPerimeter;whiteSpace=wrap;html=1;fixedSize=1;rounded=1;" vertex="1" parent="WIyWlLk6GJQsqaUBKTNV-1">
          <mxGeometry x="195" y="260" width="150" height="60" as="geometry" />
        </mxCell>
        <mxCell id="Xw-442T-ghPfAEUu0Zwx-13" value="" style="edgeStyle=orthogonalEdgeStyle;rounded=0;orthogonalLoop=1;jettySize=auto;html=1;" edge="1" parent="WIyWlLk6GJQsqaUBKTNV-1" source="Xw-442T-ghPfAEUu0Zwx-8" target="Xw-442T-ghPfAEUu0Zwx-10">
          <mxGeometry relative="1" as="geometry" />
        </mxCell>
        <mxCell id="Xw-442T-ghPfAEUu0Zwx-8" value="flagreverse = 1" style="shape=parallelogram;perimeter=parallelogramPerimeter;whiteSpace=wrap;html=1;fixedSize=1;rounded=1;" vertex="1" parent="WIyWlLk6GJQsqaUBKTNV-1">
          <mxGeometry x="210" y="340" width="120" height="60" as="geometry" />
        </mxCell>
        <mxCell id="Xw-442T-ghPfAEUu0Zwx-16" value="" style="edgeStyle=orthogonalEdgeStyle;rounded=0;orthogonalLoop=1;jettySize=auto;html=1;" edge="1" parent="WIyWlLk6GJQsqaUBKTNV-1" source="Xw-442T-ghPfAEUu0Zwx-10" target="Xw-442T-ghPfAEUu0Zwx-11">
          <mxGeometry relative="1" as="geometry" />
        </mxCell>
        <mxCell id="Xw-442T-ghPfAEUu0Zwx-10" value="Кнопка 1 нажата и flagreverse равен 1" style="rhombus;whiteSpace=wrap;html=1;rounded=1;" vertex="1" parent="WIyWlLk6GJQsqaUBKTNV-1">
          <mxGeometry x="197.5" y="430" width="145" height="80" as="geometry" />
        </mxCell>
        <mxCell id="Xw-442T-ghPfAEUu0Zwx-17" value="" style="edgeStyle=orthogonalEdgeStyle;rounded=0;orthogonalLoop=1;jettySize=auto;html=1;" edge="1" parent="WIyWlLk6GJQsqaUBKTNV-1" source="Xw-442T-ghPfAEUu0Zwx-11" target="Xw-442T-ghPfAEUu0Zwx-12">
          <mxGeometry relative="1" as="geometry" />
        </mxCell>
        <mxCell id="Xw-442T-ghPfAEUu0Zwx-11" value="вращаем двигатель против часовой стрелке" style="shape=parallelogram;perimeter=parallelogramPerimeter;whiteSpace=wrap;html=1;fixedSize=1;rounded=1;" vertex="1" parent="WIyWlLk6GJQsqaUBKTNV-1">
          <mxGeometry x="198.75" y="535" width="142.5" height="50" as="geometry" />
        </mxCell>
        <mxCell id="Xw-442T-ghPfAEUu0Zwx-12" value="flagreverse = 0" style="shape=parallelogram;perimeter=parallelogramPerimeter;whiteSpace=wrap;html=1;fixedSize=1;rounded=1;" vertex="1" parent="WIyWlLk6GJQsqaUBKTNV-1">
          <mxGeometry x="210" y="610" width="120" height="60" as="geometry" />
        </mxCell>
        <mxCell id="Xw-442T-ghPfAEUu0Zwx-18" value="" style="endArrow=classic;html=1;rounded=0;exitX=0;exitY=0.5;exitDx=0;exitDy=0;" edge="1" parent="WIyWlLk6GJQsqaUBKTNV-1" source="Xw-442T-ghPfAEUu0Zwx-4">
          <mxGeometry width="50" height="50" relative="1" as="geometry">
            <mxPoint x="80" y="380" as="sourcePoint" />
            <mxPoint x="250" y="420" as="targetPoint" />
            <Array as="points">
              <mxPoint x="160" y="200" />
              <mxPoint x="160" y="420" />
            </Array>
          </mxGeometry>
        </mxCell>
        <mxCell id="Xw-442T-ghPfAEUu0Zwx-19" value="" style="endArrow=classic;html=1;rounded=0;exitX=0;exitY=0.5;exitDx=0;exitDy=0;" edge="1" parent="WIyWlLk6GJQsqaUBKTNV-1" source="Xw-442T-ghPfAEUu0Zwx-10">
          <mxGeometry width="50" height="50" relative="1" as="geometry">
            <mxPoint x="110" y="620" as="sourcePoint" />
            <mxPoint x="260" y="690" as="targetPoint" />
            <Array as="points">
              <mxPoint x="160" y="470" />
              <mxPoint x="160" y="690" />
            </Array>
          </mxGeometry>
        </mxCell>
        <mxCell id="Xw-442T-ghPfAEUu0Zwx-20" value="" style="endArrow=classic;html=1;rounded=0;exitX=0.5;exitY=1;exitDx=0;exitDy=0;" edge="1" parent="WIyWlLk6GJQsqaUBKTNV-1" source="Xw-442T-ghPfAEUu0Zwx-12">
          <mxGeometry width="50" height="50" relative="1" as="geometry">
            <mxPoint x="310" y="770" as="sourcePoint" />
            <mxPoint x="270" y="710" as="targetPoint" />
          </mxGeometry>
        </mxCell>
        <mxCell id="Xw-442T-ghPfAEUu0Zwx-21" value="А" style="ellipse;whiteSpace=wrap;html=1;aspect=fixed;" vertex="1" parent="WIyWlLk6GJQsqaUBKTNV-1">
          <mxGeometry x="245" y="710" width="50" height="50" as="geometry" />
        </mxCell>
        <mxCell id="Xw-442T-ghPfAEUu0Zwx-24" value="" style="edgeStyle=orthogonalEdgeStyle;rounded=0;orthogonalLoop=1;jettySize=auto;html=1;" edge="1" parent="WIyWlLk6GJQsqaUBKTNV-1" source="Xw-442T-ghPfAEUu0Zwx-22" target="Xw-442T-ghPfAEUu0Zwx-23">
          <mxGeometry relative="1" as="geometry" />
        </mxCell>
        <mxCell id="Xw-442T-ghPfAEUu0Zwx-22" value="А" style="ellipse;whiteSpace=wrap;html=1;aspect=fixed;" vertex="1" parent="WIyWlLk6GJQsqaUBKTNV-1">
          <mxGeometry x="500" y="60" width="50" height="50" as="geometry" />
        </mxCell>
        <mxCell id="Xw-442T-ghPfAEUu0Zwx-27" value="" style="edgeStyle=orthogonalEdgeStyle;rounded=0;orthogonalLoop=1;jettySize=auto;html=1;" edge="1" parent="WIyWlLk6GJQsqaUBKTNV-1" source="Xw-442T-ghPfAEUu0Zwx-23" target="Xw-442T-ghPfAEUu0Zwx-26">
          <mxGeometry relative="1" as="geometry" />
        </mxCell>
        <mxCell id="Xw-442T-ghPfAEUu0Zwx-23" value="Если нажата кнопка 2" style="rhombus;whiteSpace=wrap;html=1;" vertex="1" parent="WIyWlLk6GJQsqaUBKTNV-1">
          <mxGeometry x="472.5" y="140" width="105" height="80" as="geometry" />
        </mxCell>
        <mxCell id="Xw-442T-ghPfAEUu0Zwx-30" value="" style="edgeStyle=orthogonalEdgeStyle;rounded=0;orthogonalLoop=1;jettySize=auto;html=1;" edge="1" parent="WIyWlLk6GJQsqaUBKTNV-1" source="Xw-442T-ghPfAEUu0Zwx-26" target="Xw-442T-ghPfAEUu0Zwx-28">
          <mxGeometry relative="1" as="geometry" />
        </mxCell>
        <mxCell id="Xw-442T-ghPfAEUu0Zwx-26" value="Увеличить напряжение подающееся на двигатель(speed1+=50)" style="shape=parallelogram;perimeter=parallelogramPerimeter;whiteSpace=wrap;html=1;fixedSize=1;" vertex="1" parent="WIyWlLk6GJQsqaUBKTNV-1">
          <mxGeometry x="455" y="240" width="157.5" height="80" as="geometry" />
        </mxCell>
        <mxCell id="Xw-442T-ghPfAEUu0Zwx-31" value="" style="edgeStyle=orthogonalEdgeStyle;rounded=0;orthogonalLoop=1;jettySize=auto;html=1;" edge="1" parent="WIyWlLk6GJQsqaUBKTNV-1" source="Xw-442T-ghPfAEUu0Zwx-28" target="Xw-442T-ghPfAEUu0Zwx-29">
          <mxGeometry relative="1" as="geometry" />
        </mxCell>
        <mxCell id="Xw-442T-ghPfAEUu0Zwx-28" value="Если нажата кнопка 3" style="rhombus;whiteSpace=wrap;html=1;" vertex="1" parent="WIyWlLk6GJQsqaUBKTNV-1">
          <mxGeometry x="472.5" y="350" width="105" height="80" as="geometry" />
        </mxCell>
        <mxCell id="Xw-442T-ghPfAEUu0Zwx-41" value="" style="edgeStyle=orthogonalEdgeStyle;rounded=0;orthogonalLoop=1;jettySize=auto;html=1;" edge="1" parent="WIyWlLk6GJQsqaUBKTNV-1" source="Xw-442T-ghPfAEUu0Zwx-29" target="Xw-442T-ghPfAEUu0Zwx-40">
          <mxGeometry relative="1" as="geometry" />
        </mxCell>
        <mxCell id="Xw-442T-ghPfAEUu0Zwx-29" value="Уменьшить напряжение подающееся на двигатель (speed1-=50)" style="shape=parallelogram;perimeter=parallelogramPerimeter;whiteSpace=wrap;html=1;fixedSize=1;" vertex="1" parent="WIyWlLk6GJQsqaUBKTNV-1">
          <mxGeometry x="437.5" y="450" width="175" height="70" as="geometry" />
        </mxCell>
        <mxCell id="Xw-442T-ghPfAEUu0Zwx-32" value="Да" style="text;html=1;strokeColor=none;fillColor=none;align=center;verticalAlign=middle;whiteSpace=wrap;rounded=0;" vertex="1" parent="WIyWlLk6GJQsqaUBKTNV-1">
          <mxGeometry x="270" y="230" width="60" height="30" as="geometry" />
        </mxCell>
        <mxCell id="Xw-442T-ghPfAEUu0Zwx-33" value="Да" style="text;html=1;strokeColor=none;fillColor=none;align=center;verticalAlign=middle;whiteSpace=wrap;rounded=0;" vertex="1" parent="WIyWlLk6GJQsqaUBKTNV-1">
          <mxGeometry x="270" y="505" width="60" height="30" as="geometry" />
        </mxCell>
        <mxCell id="Xw-442T-ghPfAEUu0Zwx-34" value="Нет" style="text;html=1;strokeColor=none;fillColor=none;align=center;verticalAlign=middle;whiteSpace=wrap;rounded=0;" vertex="1" parent="WIyWlLk6GJQsqaUBKTNV-1">
          <mxGeometry x="150" y="170" width="60" height="30" as="geometry" />
        </mxCell>
        <mxCell id="Xw-442T-ghPfAEUu0Zwx-35" value="Нет" style="text;html=1;strokeColor=none;fillColor=none;align=center;verticalAlign=middle;whiteSpace=wrap;rounded=0;" vertex="1" parent="WIyWlLk6GJQsqaUBKTNV-1">
          <mxGeometry x="150" y="440" width="60" height="30" as="geometry" />
        </mxCell>
        <mxCell id="Xw-442T-ghPfAEUu0Zwx-36" value="" style="endArrow=classic;html=1;rounded=0;exitX=0;exitY=0.5;exitDx=0;exitDy=0;" edge="1" parent="WIyWlLk6GJQsqaUBKTNV-1" source="Xw-442T-ghPfAEUu0Zwx-23">
          <mxGeometry width="50" height="50" relative="1" as="geometry">
            <mxPoint x="390" y="410" as="sourcePoint" />
            <mxPoint x="510" y="340" as="targetPoint" />
            <Array as="points">
              <mxPoint x="440" y="180" />
              <mxPoint x="440" y="340" />
            </Array>
          </mxGeometry>
        </mxCell>
        <mxCell id="Xw-442T-ghPfAEUu0Zwx-37" value="" style="endArrow=classic;html=1;rounded=0;exitX=0;exitY=0.5;exitDx=0;exitDy=0;" edge="1" parent="WIyWlLk6GJQsqaUBKTNV-1" source="Xw-442T-ghPfAEUu0Zwx-28">
          <mxGeometry width="50" height="50" relative="1" as="geometry">
            <mxPoint x="380" y="520" as="sourcePoint" />
            <mxPoint x="520" y="540" as="targetPoint" />
            <Array as="points">
              <mxPoint x="430" y="390" />
              <mxPoint x="430" y="540" />
            </Array>
          </mxGeometry>
        </mxCell>
        <mxCell id="Xw-442T-ghPfAEUu0Zwx-40" value="Конец" style="rounded=1;whiteSpace=wrap;html=1;" vertex="1" parent="WIyWlLk6GJQsqaUBKTNV-1">
          <mxGeometry x="478.75" y="560" width="92.5" height="40" as="geometry" />
        </mxCell>
      </root>
    </mxGraphModel>
  </diagram>
</mxfile>
